<svg width="1280" height="35" viewBox="0 0 1280 35" fill="none" xmlns="http://www.w3.org/2000/svg">
<path d="M1013.54 21.1695H1023.51V13.9386H1020.17V17.817H1016.88V10.847H1026.81V24.1529H1010.24V7.49461H987V27.5053H1003.61V13.8319H993.635V21.0599H996.973V17.1843H1000.27V24.1529H990.338V10.847H1006.9V27.5053H1030.15V7.49316H1013.54V21.1695Z" fill="#D9D9D9"/>
<path d="M1059.98 21.1695H1069.95V13.9386H1066.61V17.817H1063.32V10.847H1073.25V24.1529H1056.68V7.49461H1033.44V27.5053H1050.05L1050.05 13.8319H1040.08V21.0599H1043.41V17.1843H1046.71L1046.71 24.1529H1036.78V10.847H1053.35V27.5053H1076.59V7.49316H1059.98V21.1695Z" fill="#D9D9D9"/>
<path d="M1106.42 21.1695H1116.39V13.9386H1113.06V17.817H1109.76V10.847H1119.69V24.1529H1103.12V7.49461H1079.88V27.5053H1096.49L1096.49 13.8319H1086.52V21.0599H1089.86V17.1843H1093.15L1093.15 24.1529H1083.22V10.847H1099.79V27.5053H1123.03V7.49316H1106.42V21.1695Z" fill="#D9D9D9"/>
<path d="M1152.86 21.1695H1162.83V13.9386H1159.5V17.817H1156.2L1156.2 10.847H1166.13V24.1529H1149.57V7.49461H1126.32V27.5053H1142.93V13.8319H1132.96V21.0599H1136.3V17.1843H1139.59V24.1529H1129.66V10.847H1146.23V27.5053H1169.47V7.49316H1152.86V21.1695Z" fill="#D9D9D9"/>
<path d="M1199.3 21.1695H1209.28V13.9386H1205.94V17.817H1202.64V10.847H1212.57V24.1529H1196.01V7.49461H1172.77V27.5053H1189.37V13.8319H1179.4V21.0599H1182.74V17.1843H1186.04V24.1529H1176.1V10.847H1192.67V27.5053H1215.91V7.49316H1199.3V21.1695Z" fill="#D9D9D9"/>
<path d="M1245.75 21.1695H1255.72V13.9386H1252.38V17.817H1249.08V10.847H1259.01V24.1529H1242.45V7.49461H1219.21V27.5053H1235.82V13.8319H1225.84V21.0599H1229.18V17.1843H1232.48V24.1529H1222.55V10.847H1239.11V27.5053H1262.35V7.49316H1245.75V21.1695Z" fill="#D9D9D9"/>
<path d="M1292.19 21.1695H1302.16V13.9386H1298.82V17.817H1295.53V10.847H1305.46V24.1529H1288.89V7.49461H1265.65V27.5053H1282.26V13.8319H1272.28V21.0599H1275.62V17.1843H1278.92V24.1529H1268.99V10.847H1285.55V27.5053H1308.79V7.49316H1292.19V21.1695Z" fill="#D9D9D9"/>
<path d="M1541 0H987V3H1541V0Z" fill="#D9D9D9"/>
<path d="M1541 32H987V35H1541V32Z" fill="#D9D9D9"/>
<path d="M-9.57787 21.1695H0.393703V13.9386H-2.94402V17.817H-6.24014V10.847H3.68982V24.1529H-12.8754V7.49461H-36.1176V27.5053H-19.5107L-19.5093 13.8319H-29.4823V21.0599H-26.1445V17.1843H-22.847L-22.8484 24.1529H-32.7798V10.847H-16.2132V27.5053H7.02755V7.49316H-9.57787V21.1695Z" fill="#D9D9D9"/>
<path d="M36.8634 21.1695H46.835V13.9386H43.4973V17.817H40.2012L40.2026 10.847H50.1311V24.1529H33.5673V7.49461H10.3237V27.5053H26.932V13.8319H16.959V21.0599H20.2968V17.1843H23.5943V24.1529H13.6615V10.847H30.2296V27.5053H53.4688V7.49316H36.8634V21.1695Z" fill="#D9D9D9"/>
<path d="M83.3046 21.1695H93.2762V13.9386H89.9385V17.817H86.6423V10.847H96.5723V24.1529H80.0085V7.49461H56.7664V27.5053H73.3732V13.8319H63.4002V21.0599H66.7379V17.1843H70.0355V24.1529H60.1041V10.847H76.6708V27.5053H99.91V7.49316H83.3046V21.1695Z" fill="#D9D9D9"/>
<path d="M129.747 21.1695H139.717V13.9386H136.38V17.817H133.085V10.847H143.015V24.1529H126.45V7.49461H103.208V27.5053H119.816V13.8319H109.841V21.0599H113.179V17.1843H116.478V24.1529H106.545V10.847H123.112V27.5053H146.353V7.49316H129.747V21.1695Z" fill="#D9D9D9"/>
<path d="M176.189 21.1695H186.159V13.9386H182.821V17.817H179.526V10.847H189.456V24.1529H172.891V7.49461H149.649V27.5053H166.257V13.8319H156.283V21.0599H159.62V17.1843H162.919V24.1529H152.987V10.847H169.553V27.5053H192.794V7.49316H176.189V21.1695Z" fill="#D9D9D9"/>
<path d="M222.631 21.1695H232.601V13.9386H229.264V17.817H225.969V10.847H235.897V24.1529H219.332V7.49461H196.091V27.5053H212.698V13.8319H202.724V21.0599H206.062V17.1843H209.361V24.1529H199.429V10.847H215.994V27.5053H239.235V7.49316H222.631V21.1695Z" fill="#D9D9D9"/>
<path d="M269.071 21.1695H279.043V13.9386H275.705V17.817H272.409V10.847H282.339V24.1529H265.773V7.49461H242.531V27.5053H259.14V13.8319H249.167V21.0599H252.504V17.1843H255.802V24.1529H245.869V10.847H262.436V27.5053H285.676V7.49316H269.071V21.1695Z" fill="#D9D9D9"/>
<path d="M315.514 21.1695H325.484V13.9386H322.145V17.817H318.851V10.847H328.78V24.1529H312.216V7.49461H288.974V27.5053H305.581V13.8319H295.608V21.0599H298.945V17.1843H302.243V24.1529H292.312V10.847H308.878V27.5053H332.118V7.49316H315.514V21.1695Z" fill="#D9D9D9"/>
<path d="M361.955 21.1695H371.925V13.9386H368.587V17.817H365.292V10.847H375.222V24.1529H358.656V7.49461H335.415V27.5053H352.023V13.8319H342.049V21.0599H345.387V17.1843H348.686V24.1529H338.753V10.847H355.318V27.5053H378.56V7.49316H361.955V21.1695Z" fill="#D9D9D9"/>
<path d="M408.396 21.1695H418.366V13.9386H415.028V17.817H411.734V10.847H421.662V24.1529H405.098V7.49461H381.856V27.5053H398.463V13.8319H388.49V21.0599H391.828V17.1843H395.125V24.1529H385.194V10.847H401.761V27.5053H425V7.49316H408.396V21.1695Z" fill="#D9D9D9"/>
<path d="M430 0H-129V3H430V0Z" fill="#D9D9D9"/>
<path d="M430 32H-129V35H430V32Z" fill="#D9D9D9"/>
<path d="M455.54 21.1695H465.51V13.9386H462.172V17.817H458.877V10.847H468.807V24.1529H452.242V7.49461H429V27.5053H445.607V13.8319H435.635V21.0599H438.973V17.1843H442.269V24.1529H432.338V10.847H448.904V27.5053H472.145V7.49316H455.54V21.1695Z" fill="#D9D9D9"/>
<path d="M501.981 21.1695H511.951V13.9386H508.613V17.817H505.319V10.847H515.249V24.1529H498.683V7.49461H475.441V27.5053H492.048L492.05 13.8319H482.077V21.0599H485.414V17.1843H488.712L488.71 24.1529H478.779V10.847H495.346V27.5053H518.586V7.49316H501.981V21.1695Z" fill="#D9D9D9"/>
<path d="M548.422 21.1695H558.394V13.9386H555.056V17.817H551.76V10.847H561.69V24.1529H545.125V7.49461H521.882V27.5053H538.489L538.491 13.8319H528.518V21.0599H531.855V17.1843H535.153L535.152 24.1529H525.22V10.847H541.787V27.5053H565.028V7.49316H548.422V21.1695Z" fill="#D9D9D9"/>
<path d="M594.863 21.1695H604.835V13.9386H601.497V17.817H598.201L598.203 10.847H608.131V24.1529H591.567V7.49461H568.324V27.5053H584.932V13.8319H574.959V21.0599H578.297V17.1843H581.594V24.1529H571.661V10.847H588.23V27.5053H611.469V7.49316H594.863V21.1695Z" fill="#D9D9D9"/>
<path d="M641.305 21.1695H651.276V13.9386H647.938V17.817H644.642V10.847H654.572V24.1529H638.009V7.49461H614.766V27.5053H631.373V13.8319H621.4V21.0599H624.738V17.1843H628.035V24.1529H618.104V10.847H634.671V27.5053H657.91V7.49316H641.305V21.1695Z" fill="#D9D9D9"/>
<path d="M687.747 21.1695H697.717V13.9386H694.38V17.817H691.085V10.847H701.015V24.1529H684.45V7.49461H661.208V27.5053H677.816V13.8319H667.841V21.0599H671.179V17.1843H674.478V24.1529H664.545V10.847H681.112V27.5053H704.353V7.49316H687.747V21.1695Z" fill="#D9D9D9"/>
<path d="M734.189 21.1695H744.159V13.9386H740.821V17.817H737.526V10.847H747.456V24.1529H730.891V7.49461H707.649V27.5053H724.257V13.8319H714.283V21.0599H717.62V17.1843H720.919V24.1529H710.987V10.847H727.553V27.5053H750.794V7.49316H734.189V21.1695Z" fill="#D9D9D9"/>
<path d="M780.631 21.1695H790.601V13.9386H787.264V17.817H783.969V10.847H793.897V24.1529H777.332V7.49461H754.091V27.5053H770.698V13.8319H760.724V21.0599H764.062V17.1843H767.361V24.1529H757.429V10.847H773.994V27.5053H797.235V7.49316H780.631V21.1695Z" fill="#D9D9D9"/>
<path d="M827.071 21.1695H837.043V13.9386H833.705V17.817H830.409V10.847H840.339V24.1529H823.773V7.49461H800.531V27.5053H817.14V13.8319H807.167V21.0599H810.504V17.1843H813.802V24.1529H803.869V10.847H820.436V27.5053H843.676V7.49316H827.071V21.1695Z" fill="#D9D9D9"/>
<path d="M873.514 21.1695H883.484V13.9386H880.145V17.817H876.851V10.847H886.78V24.1529H870.216V7.49461H846.974V27.5053H863.581V13.8319H853.608V21.0599H856.945V17.1843H860.243V24.1529H850.312V10.847H866.878V27.5053H890.118V7.49316H873.514V21.1695Z" fill="#D9D9D9"/>
<path d="M919.955 21.1695H929.925V13.9386H926.587V17.817H923.293V10.847H933.222V24.1529H916.656V7.49461H893.415V27.5053H910.023V13.8319H900.049V21.0599H903.387V17.1843H906.686V24.1529H896.753V10.847H913.318V27.5053H936.56V7.49316H919.955V21.1695Z" fill="#D9D9D9"/>
<path d="M966.396 21.1695H976.366V13.9386H973.028V17.817H969.734V10.847H979.662V24.1529H963.098V7.49461H939.856V27.5053H956.463V13.8319H946.49V21.0599H949.828V17.1843H953.125V24.1529H943.194V10.847H959.761V27.5053H983V7.49316H966.396V21.1695Z" fill="#D9D9D9"/>
<path d="M987 0H429V3H987V0Z" fill="#D9D9D9"/>
<path d="M989 32H429V35H989V32Z" fill="#D9D9D9"/>
</svg>
